<svg width="25" height="24" viewBox="0 0 25 24" fill="none" xmlns="http://www.w3.org/2000/svg">
<g clip-path="url(#clip0_71_2762)">
<path d="M5.75 8.85547C5.75 9.42969 6.21875 9.89844 6.79297 9.89844H11.7969V14.7266C11.7969 15.2891 12.2656 15.7461 12.8398 15.7461C13.4141 15.7461 13.8945 15.2891 13.8945 14.7266V9.89844H18.8984C19.4727 9.89844 19.9414 9.42969 19.9414 8.85547C19.9414 8.28125 19.4727 7.80078 18.8984 7.80078H13.8945V3.03125C13.8945 2.45703 13.4141 2 12.8398 2C12.2656 2 11.7969 2.45703 11.7969 3.03125V7.80078H6.79297C6.21875 7.80078 5.75 8.28125 5.75 8.85547ZM5.75 20.5273C5.75 21.1133 6.23047 21.582 6.79297 21.582H18.8984C19.4609 21.582 19.9414 21.1133 19.9414 20.5273C19.9414 19.9531 19.4609 19.4844 18.8984 19.4844H6.79297C6.23047 19.4844 5.75 19.9531 5.75 20.5273Z" fill="#2FA9FA"/>
</g>
<defs>
<clipPath id="clip0_71_2762">
<rect width="14.1914" height="19.582" fill="white" transform="translate(5.75 2)"/>
</clipPath>
</defs>
</svg>
