<svg width="25" height="28" viewBox="0 0 25 28" fill="none" xmlns="http://www.w3.org/2000/svg">
<g clip-path="url(#clip0_71_2716)">
<path d="M11.9609 25.3477C18.1484 25.3477 22.2734 21.1641 22.2734 14.8594C22.2734 4.37109 13.3438 0 7.14453 0C6.04297 0 5.33984 0.386719 5.33984 1.13672C5.33984 1.42969 5.46875 1.73438 5.71484 2.01562C7.10938 3.67969 8.50391 5.66016 8.52734 7.96875C8.52734 8.49609 8.46875 8.96484 8.09375 9.62109L8.67969 9.50391C8.15234 7.78125 6.73438 6.5625 5.49219 6.5625C5.01172 6.5625 4.68359 6.91406 4.68359 7.44141C4.68359 7.74609 4.76562 8.46094 4.76562 8.97656C4.76562 11.6016 2.75 13.1367 2.75 17.3672C2.75 22.1602 6.41797 25.3477 11.9609 25.3477ZM12.0781 23.707C7.48438 23.707 4.40234 21.1523 4.40234 17.3672C4.40234 13.5234 6.47656 12.2227 6.47656 9.17578C6.47656 8.71875 6.38281 8.30859 6.27734 7.95703L6.00781 8.42578C6.96875 9 7.625 10.043 8 11.6484C8.04688 11.8945 8.1875 12.0117 8.36328 12.0117C9.3125 12.0117 9.99219 9.65625 9.99219 8.16797C9.99219 5.47266 8.83203 2.91797 6.94531 1.17188L6.62891 1.54688C15.0547 1.72266 20.5508 7.3125 20.5508 14.8008C20.5508 20.1211 17.1523 23.707 12.0781 23.707ZM12.2305 22.0547C15.0195 22.0547 16.3789 20.0039 16.3789 17.6836C16.3789 15.3984 15.043 12.8438 12.4766 11.6367C12.3711 11.6016 12.3008 11.6602 12.3125 11.7656C12.5117 13.6875 12.2188 15.4688 11.5977 16.3125C11.3047 15.6328 10.9531 15.0469 10.4141 14.5664C10.332 14.4961 10.2617 14.5312 10.2383 14.6367C10.0508 15.9609 8.58594 16.6992 8.58594 18.7617C8.58594 20.7305 10.0391 22.0547 12.2305 22.0547Z" fill="#2FA9FA"/>
</g>
<defs>
<clipPath id="clip0_71_2716">
<rect width="19.5234" height="27.4805" fill="white" transform="translate(2.75)"/>
</clipPath>
</defs>
</svg>
