<svg width="25" height="24" viewBox="0 0 25 24" fill="none" xmlns="http://www.w3.org/2000/svg">
<g clip-path="url(#clip0_71_2427)">
<path d="M9.22656 20.9531C14.1133 20.9531 18.2031 16.8633 18.2031 11.9766C18.2031 7.07812 14.1133 3 9.21484 3C4.31641 3 0.25 7.07812 0.25 11.9766C0.25 16.8633 4.32812 20.9531 9.22656 20.9531ZM9.22656 18.9609C5.42969 18.9609 2.24219 15.7734 2.24219 11.9766C2.24219 8.19141 5.41797 4.99219 9.21484 4.99219C13.0234 4.99219 16.2109 8.19141 16.2109 11.9766C16.2109 15.7617 13.0234 18.9609 9.22656 18.9609ZM13.3984 18.5977L11.5586 19.9805C12.7656 20.6016 14.125 20.9531 15.543 20.9531C20.4414 20.9531 24.5195 16.8633 24.5195 11.9766C24.5195 7.07812 20.4414 3 15.5312 3C14.1602 3 12.8477 3.32812 11.6875 3.90234L13.4219 5.33203C14.0898 5.10938 14.8047 4.99219 15.5312 4.99219C19.3516 4.99219 22.5273 8.19141 22.5273 11.9766C22.5273 15.7617 19.3516 18.9609 15.543 18.9609C14.793 18.9609 14.0781 18.8438 13.3984 18.5977Z" fill="#2FA9FA"/>
</g>
<defs>
<clipPath id="clip0_71_2427">
<rect width="24.2695" height="17.9648" fill="white" transform="translate(0.25 3)"/>
</clipPath>
</defs>
</svg>
