<svg width="26" height="25" viewBox="0 0 26 25" fill="none" xmlns="http://www.w3.org/2000/svg">
<g clip-path="url(#clip0_71_976)">
<path d="M1.1875 23.3086H24.4961C25.0117 23.3086 25.4453 22.8984 25.4453 22.3711C25.4453 21.8555 25.0117 21.4336 24.4961 21.4336H2.46484C2.21875 21.4336 2.13672 21.3516 2.13672 21.1055V2.57812C2.13672 2.07422 1.71484 1.64062 1.19922 1.64062C0.671875 1.64062 0.25 2.07422 0.25 2.57812V22.3828C0.25 22.9453 0.625 23.3086 1.1875 23.3086ZM7.52734 17.4023C8.54688 17.4023 9.39062 16.5352 9.39062 15.5391C9.39062 14.5547 8.54688 13.6758 7.52734 13.6758C6.50781 13.6758 5.65234 14.5547 5.65234 15.5391C5.65234 16.5352 6.50781 17.4023 7.52734 17.4023ZM12.0156 9.91406C13.0234 9.91406 13.8789 9.04688 13.8789 8.05078C13.8789 7.06641 13.0234 6.1875 12.0156 6.1875C10.9961 6.1875 10.1406 7.06641 10.1406 8.05078C10.1406 9.04688 10.9961 9.91406 12.0156 9.91406ZM17.4531 15.5977C18.4609 15.5977 19.3164 14.7305 19.3164 13.7344C19.3164 12.75 18.4609 11.8711 17.4531 11.8711C16.4336 11.8711 15.5781 12.75 15.5781 13.7344C15.5781 14.7305 16.4336 15.5977 17.4531 15.5977ZM21.9414 8.12109C22.9492 8.12109 23.8047 7.25391 23.8047 6.25781C23.8047 5.27344 22.9492 4.39453 21.9414 4.39453C20.9219 4.39453 20.0664 5.27344 20.0664 6.25781C20.0664 7.25391 20.9219 8.12109 21.9414 8.12109Z" fill="#2FA9FA"/>
</g>
<defs>
<clipPath id="clip0_71_976">
<rect width="25.1953" height="21.8086" fill="white" transform="translate(0.25 1.5)"/>
</clipPath>
</defs>
</svg>
